/* XPM */
static char *_ff7e963d5f349eea4b4270e70c2c875HuOlmJ3YaxNn7k17[] = {
/* columns rows colors chars-per-pixel */
"64 64 129 2 ",
"   c #000207",
".  c #01020D",
"X  c #00080F",
"o  c #000612",
"O  c #010915",
"+  c #010619",
"@  c #020C1B",
"#  c #03101D",
"$  c #020F20",
"%  c #041323",
"&  c #081526",
"*  c #061826",
"=  c #081827",
"-  c #061629",
";  c #08172A",
":  c #07192B",
">  c #091B2C",
",  c #081D32",
"<  c #0A1C32",
"1  c #0B1D33",
"2  c #091E33",
"3  c #0A1C30",
"4  c #0D1C31",
"5  c #0C1D31",
"6  c #0D1E30",
"7  c #0C1F30",
"8  c #0C1C33",
"9  c #0D1C33",
"0  c #0C1E32",
"q  c #0D1E32",
"w  c #0D1F33",
"e  c #0A1F34",
"r  c #0D1D34",
"t  c #0C1E34",
"y  c #0D1F35",
"u  c #0E1E35",
"i  c #0D1D36",
"p  c #0F1D37",
"a  c #0D1F37",
"s  c #0E1E37",
"d  c #0C1E33",
"f  c #0D1E38",
"g  c #0E1E38",
"h  c #0F1F38",
"j  c #0E1F39",
"k  c #101E38",
"l  c #0B2035",
"z  c #0A2037",
"x  c #0C2134",
"c  c #0E2034",
"v  c #0F2034",
"b  c #0F2135",
"n  c #0C2136",
"m  c #0E2036",
"M  c #0F2137",
"N  c #0E2136",
"B  c #0B2138",
"V  c #0C2038",
"C  c #0D2139",
"Z  c #0E2038",
"A  c #0F2139",
"S  c #0E2338",
"D  c #0F203A",
"F  c #0D233A",
"G  c #0E223B",
"H  c #0F233B",
"J  c #0F2439",
"K  c #0E243B",
"L  c #0F233E",
"P  c #0F253D",
"I  c #0E233A",
"U  c #0D293F",
"Y  c #0F283E",
"T  c #112337",
"R  c #102238",
"E  c #112339",
"W  c #10203A",
"Q  c #10223A",
"!  c #12243A",
"~  c #13253B",
"^  c #10213D",
"/  c #10243C",
"(  c #10243D",
")  c #11253E",
"_  c #10243F",
"`  c #10263E",
"'  c #11273F",
"]  c #14263C",
"[  c #15273D",
"{  c #11243C",
"}  c #11293F",
"|  c #0F2940",
" . c #0E2A40",
".. c #0F2B41",
"X. c #112540",
"o. c #112641",
"O. c #122543",
"+. c #122742",
"@. c #122744",
"#. c #142745",
"$. c #112941",
"%. c #122840",
"&. c #132941",
"*. c #102A41",
"=. c #112943",
"-. c #112B42",
";. c #122A42",
":. c #132B43",
">. c #142A42",
",. c #102C42",
"<. c #122C43",
"1. c #132845",
"2. c #122A44",
"3. c #142946",
"4. c #132D44",
"5. c #122E44",
"6. c #132F45",
"7. c #132D46",
"8. c #142C44",
"9. c #142E45",
"0. c #122A42",
"q. c #162B4A",
"w. c #152F4A",
"e. c #142E49",
"r. c #182D4C",
"t. c #15304B",
"y. c #16304B",
"u. c #16314C",
"i. c #16314C",
/* pixels */
". . . . . o O O O O @ @ % % % % = > 3 0 y Z Z j M M M R M M y y M M R R R R M M > > > = % % % % % % % % @ @ @ @ o o . . . .     ",
". . . . o o O O O O @ @ % % % % = > 3 0 y Z Z j M M R R M M y y M M M R R M M M > > > = % % % % % % % % @ @ @ @ o o . . . .     ",
". . . . o o O O O @ @ % % % % % = > 3 0 y Z Z j M M R R R M y y y y M M M M y y > > > > % % % % % % % % @ @ @ @ o o . . . .     ",
". . . . o o O O O @ @ % % % - - = > 3 0 y Z Z j M R R R R M M y 3 y y y y y y 3 > > > > * % % % % % % % @ @ @ @ o o . . . .     ",
". . . . o o O O @ @ @ % % % - - = > 3 0 y Z Z j R R R R R M M M 3 3 y y y y 3 3 > > > > > * % % % % % % % @ @ @ o o . . . .     ",
". . . . o o O O @ @ @ % % % - - = > 3 0 y Z Z j R R R R R R M M 3 3 y y y y 3 3 > > > > > > * * % % % % % @ @ @ o o . . .       ",
". . . . o o O O O @ @ % % % % - = > 3 0 y Z Z j R R ! ! R R M M y y y y y y y y > > > > > > > > % % % % % $ @ @ o o . . . .     ",
". . . . o o O O O @ @ % % % % % = > 3 0 y Z Z j R R ! ! R R M M y y y M M y y y > > > > > > > > % % % % % $ @ @ o o . . . .     ",
". . . . . o O O @ @ # % % % % % > > > 0 M M B B ( ( ( ( ( ( ( ( M M M M M M M M > > > > > > > > > : - % % % % @ O O X . .       ",
". . . . . o O O @ @ # % % % % % > > 0 M Z Z Z Z ( ( ( ( ( ( ( ( M M M M M M M y 0 > > > > > > > > > - % % % % @ O O O . . .     ",
". . . . o o O O @ @ # % % % - - > 0 M R J ( P P %.%.%.%.%.%.%.%.R R R M M M M y 0 0 0 0 0 3 3 3 3 > = - & % % @ O O O o . . .   ",
". . . . o O O @ @ @ # % % % - = 0 0 y M J ( ( X.>.>.>.>.%.%.%.%.R R R R M M y y M M M M M 0 0 0 3 3 = - & % % @ @ O O o . . . . ",
". . . . o O O @ @ @ # % % * > = 4 0 y Z Z ( X.X.8.8.%.%.%.%.%.%.! ! R R M M y y R R Z M M M M M 0 3 = - & % % @ @ O O o . . . . ",
". . . . o O @ @ @ @ # % % = > > 0 0 y j Z ( @.1.8.5.5.,.%.%.%.| ] ! ! R R M y y R R R Z Z Z Z Z 0 0 > - & % % @ @ @ O O o . . . ",
". . . . o O @ @ @ @ # % * > > > y y j j L X.3.q.8.8.5.,.,.%.| | ] ] ! R R M y y R R Z Z Z Z Z y M 0 > ; & % % @ @ @ O O o o . . ",
". . . . o O @ @ @ # # % % > > > k j R ^ X.#.q.r.5.5.5.,...| U U ] ] ! ! R M y y Z Z Z j j j j j M 0 > ; & % % @ @ @ O O o o o . ",
"o . . o O @ @ @ % % % % - : 3 3 l Z Z ( %.5.e.t.,.,.,.%.%.%.%.%.! ! ! R R M M M R R R R R R R R > > > = % % % @ @ @ @ O o o . . ",
". . . o O @ @ @ % % % % - 3 3 e M Z J ( 1.5.t.u.,.,.,.%.%.%.%.%.! ! ! R R R M M R R R R R R R R 3 3 > > % % % # @ @ @ O o o . . ",
". . . o O @ @ @ % % % - - 3 3 e M Z P %.1.8.t.u.5.5.,.,.,.,.%.%.] ! ! ! R R M M R R R R R R R R 3 3 > > = % % # @ @ @ O o o . . ",
". . . o O @ @ @ % % % - - 3 3 e J ( ( %.1.e.u.u.5.5.5.,.5.,.,.%.] ] ~ ! R R R M R R R R R R R R 3 3 > > > % % # @ @ @ O o o . . ",
". . . o O @ @ @ % % % - : 3 3 l J ( ( %.1.8.t.u.8.8.8.8.5.,.,.,.] ] ] ! ! R R R R R R R R R R R 3 3 > > > % % # @ @ @ O o o . . ",
". . . o O @ @ @ % % % - : 3 e l J ( ( %.1.5.t.t.8.8.8.5.5.5.,.,.] ] ] ! ! R R R R R R R R R R R 3 3 > > = % % # @ @ @ O o o . . ",
". . . o O @ @ @ % % % - > 3 e M J Z ( ( %.5.e.e.8.8.8.8.5.5.,.,.] ] ] ] ! ! ! ! R R R R R R R R 3 3 > > % % # # @ @ @ O O o . . ",
". . . o O @ @ @ % % % - > 3 e M Z Z P ( %.5.5.e.8.8.8.8.5.5.,.,.' ] ] ] ! ! ! ! R R R R R R R R , > > = % % # @ @ @ @ O o o . . ",
". . . o O @ @ # % % % > > 0 y y J ( ( %.1.5.5.5.8.8.8.%.%.>.%.%.( ( ( ( ( ( ( ( R R R R M y y 3 3 3 > > > % % % @ @ @ O o . . . ",
". . . o O @ @ % % % % > > 0 y y J ( ( %.1.5.e.5.8.8.8.,.%.%.%.%.( ( ( ( ( ( ( ( R R R R M y y 3 3 3 > > = % % % @ @ @ O o . . . ",
". . . o O @ @ % % % = > 3 y y y J ( ( %.1.1.5.5.8.8.,.,.%.%.%.%.( ( ( ( ( ( ( ( R R R R M M y 3 3 3 > > > % % % @ @ @ O o . . . ",
". . . o O @ $ % % % - > 3 y y y J ( ( %.1.1.5.5.,.,.,.%.%.%.%.%.( ( ( ( ( ( ( ( R R R R R M y y 3 3 > > > % % % @ @ @ O o . . . ",
". . . o O @ $ % % % - > > 0 y M J ( ( %.1.5.5.5.%.%.%.%.%.%.%.%.( ( ( ( ( ( ( ( R R ! R R M y y 3 3 > > > % % # @ @ @ O o . . . ",
". . . o @ @ % % % % % > > 0 y M J ( ( %.1.5.5.5.1.%.%.%.%.%.%.%.( ( ( ( ( ( ( ( ! ! ! ! R M M y 3 3 > > > % % % @ @ @ O o . . . ",
". . . O @ @ % % % % % > > 0 y M J ( ( %.1.5.e.e.%.%.%.%.%.%.%.%.( ( ( ( ( ( ( ( ! ! ! ! ! R M M 3 3 > > > % % % @ @ @ O o o . . ",
". . . O @ @ % % % % % > > 0 y y J ( ( %.1.5.e.e.%.%.%.%.%.%.%.%.( ( ( ( ( ( ( ( ! ! ! ! R R M M 3 3 > > > % % % @ @ @ O o o . . ",
". . . o O @ @ @ % % % > 3 y y y Z ( ] >.%.U %.8.%.%.%.%.5.%.%.%.P P P P P P P P ( P Z Z M M 0 0 > > * % & % % @ # @ @ O o . . . ",
". . . o O @ @ @ % % % > 3 y y y Z R ] >.} U %.8.%.%.%.,.5.%.%.%.P P | P | | P P P P Z Z M 0 0 0 > > * % & % % @ # @ @ O o . . . ",
". . . o O @ @ @ % % % > 3 y y y Z R ] ( } %.%.,.%.%.%.,.5.%.%.%.P %.%.%.%.%.%.U P P Z M M 0 > > > * % % % % % @ # @ @ O o . . . ",
". . . o O @ @ @ % % % > 3 y y y Z R ( ( } } %.%.%.%.%.,.5.%.%.%.%.%.%.%.5.%.%.%.P P Z M 0 0 > > = * % % % % % @ # @ @ O o . . . ",
". . . o O @ @ @ % % % > 3 y y y Z Z ! ( %.%.%.%.%.%.%.5.5.%.%.%.%.%.5.8.8.1.%.%.( ( R M 0 0 > > * % % % % % % @ # @ @ O o . . . ",
". . . o O @ @ @ % % % > 3 y y y Z Z Z ( %.%.%.} %.%.%.5.1.%.%.%.%.%.5.8.8.1.%.%.%.} ( ! M 0 > > = % % % % % % @ # @ @ O o . . . ",
". . . o O @ @ @ % % % > 3 y y y R Z Z Z } %.} P %.%.%.5.1.%.%.%.%.%.5.5.%.%.%.%.>.%.] ! R M 0 > = * % % & & % % @ @ @ O o . . . ",
". . . o O @ @ @ % % % > 3 y y y R Z Z Z } %.%.P %.%.%.5.1.%.%.%.%.%.%.5.%.%.%.%.8.>.>.! R M 0 > > * % % & & & % # @ @ O o . . . ",
". . o o O @ @ @ % % % = > > 3 x Z Z R ^ ( ] ] >.>.>.>.>.>.] ] ' %.8.8.8.8.%.%.%.%.} U ( Z R Z Z 3 > = - % % % @ # @ @ O o . . . ",
". . o o O @ @ @ # % % % > > 3 x Z Z R ^ ( ] ] ] >.>.>.>.( ] ] ' 1.8.8.8.8.%.%.%.} } U ( Z R Z Z x , = - * % % @ # @ @ O o . . . ",
". . o o O @ @ @ # % % % > > 3 x Z Z Z R ( ] ] ] ' ' X.X.( ( ] ] 5.%.8.8.%.%.%.%.} } U P Z Z Z Z l 3 : = = % % # # @ @ O o . . . ",
". . . o O @ @ @ # % % % > > 3 x y Z Z R ( ( ] ] ( ( ( ( ( ( ( >.%.%.5.5.%.%.%.%.} U P P Z Z Z y M 3 > > > % % # @ @ @ O o . . . ",
". . . o O @ @ @ # % % % = > 3 3 j j Z R R ( ] ] ( ( ( ( ( ( >.>.%.%.%.%.%.%.%.%.U U P P Z Z y y M 3 > > > % % # @ @ @ O o . . . ",
". . . o O @ @ @ # % % % = > 3 3 y y Z Z R ( ( ] ( ( ( ( ( ( >.>.%.%.%.%.%.%.%.U U P P P Z Z y y M 3 > = = % % # @ @ @ O o . . . ",
". . . o O @ @ @ # % % % = > 3 3 y y Z R R ( ( ( R R ( ( ( ( >.>.%.%.%.%.%.%.%.P P P P Z Z Z y y x 3 = - % % % @ # @ @ O o . . . ",
". . . o O @ @ @ # % % % - > > 3 y y y R R ( ( ( Z R ( ( ( ] >.>.%.%.%.%.%.%.P P P P P Z Z Z y y 3 > = - % % % @ # @ @ O o . . . ",
". . . o O @ @ @ # % % % - > > > > > y M R R R R ( ( ( ( ( >.>.>.>.%.( ( ( ( ( ( R R R R R M M y > > > - % % % # @ O O o . . . . ",
". . . o O @ @ @ # % % % - > > > > > 0 M R R R R ( ( ( ( ( >.>.>.%.%.( ( ( ( ( ( R R R R R M M y > > > - % % % # @ O O o . . . . ",
". . . o O @ @ @ # % % % - - > > > > 0 M M R R ^ ( ( ( ( ( ( >.>.%.( ( ( ( ( ( ( M R R R R M M y > > = - % % % # @ O O o . . . . ",
". . . o o O @ @ @ % % % - = > > > > 3 y M R R ^ P P ( ( ( ( >.>.( ( ( ( ( ( ( ! M M R R M M y y > > = - % % % @ @ O O o . . . . ",
". . . o o O @ @ @ % % % - = : : = > 3 0 Z R ^ ^ J J ( ( ( ( ( ( ( ( ( ( ! J Z Z M M M M M M y y > > = - % % $ @ @ O O o . . . . ",
". . . . o O + @ @ @ % % % - : : = = 3 0 M R R ^ Z ! J ( ( ( ( ( ( ( J P Z Z Z Z M M M M M y y 3 : : - % % % @ @ @ O O o . . . . ",
". . . . o O + @ @ @ % % % - : : = = > 0 M R R ^ Z Z ( ( ( ( ( ( Z J P Z Z Z Z Z y M M M M y y e : : - % % % @ @ @ O O o . . . . ",
". . . . o O + @ @ $ % % % - : : - = > 3 M R R ^ Z Z ( ( ( ( ( ( Z Z Z Z Z Z Z Z y M M M M y e e : : - % % % @ @ @ O O o . . . . ",
". . . o o o O O @ % % % % % * * * * = : 3 M Z ( R R R R ! ! ] ] ! ! ! R R M M M 0 0 0 0 3 3 3 3 % % % % % @ O O O O o o . . . . ",
". . . o o o O O @ @ @ % % % % % = = : > 3 M J ( M M M R R ! ! ! ! ! R R M M M y 3 > > > > > : - % % % % % @ O O O O o o . . . . ",
". . . . o o O O @ @ @ @ % % % % % % = : > 0 M R y y M M R R R ! R R M M y y y e > > > : - - - - % % % % % @ O O O O o o . . . . ",
". . . . o o O O @ @ @ @ @ % % % % % % % - > > 0 3 3 y y M M M R M M M M y e 3 3 > > > : - - % % % % % % % @ O O O O o o . . . . ",
". . . . . o O O @ @ @ @ $ % % % % % % % % > > 0 3 3 e y y M M M M y y y 3 3 3 3 3 3 > > - - - - % % % % @ @ O O O O o o . . . . ",
". . . . . o O O @ @ @ @ $ % % % * * * * > > > 0 3 3 3 y y M M M M y y y 3 3 3 3 3 3 > > : - - - % % % $ @ @ O O O O o . . . . . ",
". . . . . o o O + + @ @ @ @ % % % % % % & > > > 3 3 3 y y M M M M M y y 3 3 3 3 > > > > : : - - % % % @ @ @ O O O O o . . . . . ",
". . . . . . o o + + + @ @ @ @ @ # # # # % % & & 3 3 y y M M M R M M y y 3 3 3 3 : : : : : - - - % % % @ @ @ O O O o o . . . . . "
};
